# xmcd CD database file
#
# Track frame offsets:
#	150
#	30207
#	54631
#	81604
#	108250
#	129899
#	145800
#	172666
#	198719
#	223048
#	236411
#	247506
#
# Disc length: 3779 seconds
#
# Revision: 0
# Processed by: cddbd v1.5.1PL2 Copyright (c) Steve Scherf et al.
# Submitted via: CDex 1.51
#
DISCID=960ec10c
DTITLE=Toni Stricker - Perspective, Pannonien und Jazz
DYEAR=2002
DGENRE=Jazz
TTITLE0=Pep-Ex
TTITLE1=Tagträume
TTITLE2=Straightright Away
TTITLE3=Regenbogen
TTITLE4=Der Ruf
TTITLE5=Kirtag
TTITLE6=Côte d'Azur
TTITLE7=Voilà
TTITLE8=Lost Love
TTITLE9=Entre Nous
TTITLE10=S4
TTITLE11=Pannonia Spirit
EXTD=YEAR: 2002
EXTT0=
EXTT1=
EXTT2=
EXTT3=
EXTT4=
EXTT5=
EXTT6=
EXTT7=
EXTT8=
EXTT9=
EXTT10=
EXTT11=
PLAYORDER=
